<?xml version="1.0" standalone="no"?>
<!DOCTYPE svg PUBLIC "-//W3C//DTD SVG 20010904//EN"
 "http://www.w3.org/TR/2001/REC-SVG-20010904/DTD/svg10.dtd">
<svg version="1.0" xmlns="http://www.w3.org/2000/svg"
 width="700.000000pt" height="700.000000pt" viewBox="0 0 700.000000 700.000000"
 preserveAspectRatio="xMidYMid meet">
<metadata>
Created by potrace 1.14, written by Peter Selinger 2001-2017
</metadata>
<g transform="translate(0.000000,700.000000) scale(0.100000,-0.100000)"
fill="#000000" stroke="none">
<path d="M3249 6996 c-2 -2 -47 -7 -99 -11 -52 -3 -102 -11 -112 -16 -17 -9
-17 -11 4 -33 30 -32 56 -65 76 -98 9 -16 22 -28 29 -28 7 0 13 -7 13 -15 0
-8 4 -15 8 -15 5 0 26 -25 48 -55 57 -81 70 -95 79 -87 5 4 5 2 2 -4 -4 -7 4
-23 18 -35 13 -13 25 -29 25 -34 0 -6 9 -16 21 -23 12 -7 19 -16 16 -18 -3 -3
10 -21 28 -40 19 -19 37 -43 40 -54 4 -11 10 -20 15 -20 5 0 12 -9 15 -20 4
-11 11 -18 16 -15 5 4 9 -1 9 -9 0 -9 3 -16 8 -16 4 0 18 -17 32 -38 14 -20
27 -39 31 -42 3 -3 16 -25 30 -49 13 -25 34 -56 47 -69 12 -14 22 -31 22 -38
0 -7 6 -17 13 -21 7 -4 18 -19 25 -33 7 -14 24 -43 37 -65 27 -44 45 -82 45
-94 0 -5 7 -14 15 -21 8 -7 15 -20 15 -30 0 -10 7 -23 15 -30 8 -7 15 -20 15
-29 0 -9 9 -27 20 -41 11 -14 20 -32 20 -40 0 -8 6 -26 13 -40 19 -37 46 -112
50 -137 2 -12 6 -26 10 -29 4 -4 7 -15 7 -24 0 -23 22 -50 45 -54 51 -10 81
-20 94 -29 13 -11 28 -15 64 -19 9 -1 17 -6 17 -10 0 -4 17 -10 37 -14 21 -4
44 -13 52 -21 7 -8 19 -12 27 -9 7 3 14 2 16 -2 4 -9 132 -72 147 -72 6 0 11
-4 11 -10 0 -5 7 -10 15 -10 8 0 15 -4 15 -9 0 -5 8 -11 18 -15 28 -9 82 -43
111 -69 15 -13 41 -32 58 -42 18 -10 30 -22 27 -27 -3 -4 0 -8 6 -8 6 0 18 -6
26 -12 8 -7 28 -24 44 -38 66 -56 199 -192 205 -210 3 -10 14 -22 23 -25 9 -3
31 -27 49 -53 73 -109 134 -198 142 -208 6 -7 24 -43 42 -80 18 -38 39 -77 48
-86 8 -10 11 -18 6 -18 -4 0 -2 -7 5 -15 7 -8 9 -15 5 -15 -5 0 -1 -8 7 -17
15 -17 31 -55 33 -78 0 -5 8 -26 16 -45 8 -19 21 -57 28 -85 7 -27 19 -68 26
-90 12 -38 29 -124 40 -210 3 -23 8 -52 10 -65 10 -48 5 -435 -5 -435 0 0 -3
-27 -6 -59 -3 -33 -8 -64 -11 -70 -4 -5 -8 -20 -10 -33 -2 -13 -4 -33 -6 -46
-2 -13 -6 -27 -8 -32 -3 -6 -5 -19 -5 -30 1 -11 -2 -22 -5 -25 -3 -3 -13 -33
-23 -68 -9 -34 -24 -79 -33 -100 -9 -20 -17 -39 -18 -42 -9 -33 -127 -272
-142 -288 -7 -7 -13 -22 -13 -33 0 -11 -5 -17 -10 -14 -6 3 -13 -2 -17 -12 -4
-10 -22 -39 -40 -65 -18 -26 -33 -53 -33 -58 0 -6 -4 -8 -10 -5 -5 3 -10 1
-10 -5 0 -6 -6 -18 -12 -25 -7 -8 -31 -34 -53 -60 -128 -148 -280 -282 -434
-380 -8 -5 -21 -16 -29 -23 -7 -7 -18 -10 -23 -7 -5 4 -9 2 -9 -3 0 -7 -205
-117 -237 -128 -14 -4 -1 -110 28 -239 12 -49 21 -96 22 -102 0 -7 5 -13 10
-13 6 0 8 -3 4 -6 -3 -3 1 -25 10 -47 8 -23 16 -46 17 -52 1 -5 5 -16 9 -22 5
-7 6 -13 2 -13 -3 0 0 -10 7 -22 7 -13 11 -26 10 -30 -1 -5 1 -8 6 -8 4 0 8
-12 9 -26 0 -15 7 -30 13 -34 7 -4 9 -13 6 -19 -4 -6 -2 -11 3 -11 6 0 10 -3
9 -7 -1 -8 16 -50 60 -143 14 -30 26 -57 27 -60 1 -3 11 -27 23 -53 12 -27 22
-52 22 -57 0 -4 7 -11 16 -14 9 -4 14 -9 11 -12 -3 -3 7 -29 21 -57 14 -29 25
-55 24 -59 -1 -5 3 -8 10 -8 6 0 8 -3 5 -6 -4 -4 2 -19 12 -33 10 -14 27 -44
38 -66 41 -81 54 -105 64 -110 5 -4 9 -14 9 -23 0 -10 7 -27 15 -39 l15 -22
77 36 c42 19 83 36 91 37 7 1 17 8 21 15 5 7 10 11 12 9 5 -4 123 55 127 65 2
4 12 7 23 7 11 0 22 7 25 15 4 8 14 15 24 15 11 0 22 4 25 10 3 5 21 17 40 26
19 9 35 21 35 26 0 5 5 6 10 3 6 -3 10 -1 10 4 0 6 5 11 11 11 6 0 40 20 74
45 34 24 65 41 69 38 3 -4 6 -2 6 4 0 10 93 83 105 83 2 0 15 10 29 22 26 24
28 26 91 72 66 48 327 301 408 396 21 25 52 61 68 80 16 19 39 45 49 57 11 12
20 25 20 29 0 3 15 24 33 47 17 22 39 51 47 63 8 12 38 55 65 96 28 40 57 87
65 103 8 17 21 34 27 38 7 4 13 14 13 21 0 8 7 19 15 26 8 7 15 21 15 30 0 10
4 20 8 22 10 3 22 25 75 134 21 44 42 86 48 94 5 8 12 22 15 30 3 8 14 33 25
55 10 22 19 46 19 53 0 7 9 31 20 54 11 22 17 45 14 49 -3 5 -1 9 4 9 7 0 49
109 57 150 2 8 4 15 5 15 1 0 3 7 5 15 2 8 13 47 25 85 11 39 23 83 26 99 2
16 7 32 9 36 2 3 6 18 9 33 4 15 9 39 12 55 4 15 8 38 9 52 2 14 4 25 5 25 2
0 4 9 5 20 2 11 10 67 19 125 25 168 31 260 30 515 -1 251 -6 385 -14 385 -3
0 -5 12 -5 28 -1 25 -10 102 -21 162 -2 14 -6 36 -8 50 -2 14 -7 36 -10 50 -3
14 -8 40 -10 58 -3 18 -11 54 -19 80 -16 51 -29 98 -32 122 -1 8 -10 38 -19
66 -10 28 -19 57 -20 65 -2 8 -6 21 -9 29 -7 17 -36 99 -41 115 -6 19 -18 50
-27 70 -6 12 -11 27 -13 35 -2 15 -20 53 -105 230 -48 101 -111 213 -124 221
-5 3 -9 10 -9 15 -1 13 -11 38 -18 44 -3 3 -21 30 -40 60 -93 148 -289 399
-397 509 -25 25 -52 56 -61 69 -8 12 -18 22 -22 22 -4 0 -37 28 -72 63 -100
96 -319 277 -336 277 -5 0 -19 11 -32 25 -13 14 -28 25 -33 25 -5 0 -23 11
-41 25 -17 14 -36 29 -42 33 -32 22 -51 33 -66 38 -10 4 -18 9 -18 13 0 3 -15
12 -32 20 -18 8 -36 18 -39 23 -3 5 -14 10 -23 12 -10 1 -22 9 -27 17 -5 8 -9
10 -9 4 0 -6 -3 -6 -8 1 -7 10 -191 105 -227 117 -11 4 -27 11 -35 16 -8 5
-26 13 -40 18 -14 6 -46 20 -71 32 -25 11 -51 21 -58 21 -6 0 -19 4 -29 10
-25 14 -222 77 -297 96 -5 1 -30 9 -55 17 -25 9 -67 18 -93 21 -27 3 -53 9
-59 12 -6 4 -22 9 -35 11 -12 1 -35 5 -50 8 -16 3 -41 7 -58 9 -16 2 -43 6
-60 9 -53 10 -119 19 -155 24 -50 5 -615 14 -621 9z"/>
<path d="M1895 6617 c-55 -28 -102 -54 -105 -57 -3 -3 -18 -12 -34 -20 -56
-29 -66 -35 -66 -42 0 -5 -4 -8 -9 -8 -6 0 -30 -13 -54 -30 -25 -16 -50 -30
-56 -30 -6 0 -11 -4 -11 -10 0 -5 -6 -10 -13 -10 -8 0 -24 -11 -37 -25 -13
-14 -28 -25 -34 -25 -6 0 -22 -10 -36 -23 -14 -12 -41 -33 -60 -47 -19 -13
-43 -31 -52 -39 -28 -26 -47 -41 -52 -41 -2 0 -17 -12 -33 -27 -15 -16 -59
-55 -97 -88 -97 -85 -276 -267 -276 -280 0 -3 -8 -13 -17 -23 -28 -29 -87 -98
-103 -122 -44 -64 -73 -100 -80 -100 -5 0 -11 -8 -14 -18 -3 -9 -26 -44 -51
-77 -25 -33 -45 -66 -45 -72 0 -7 -4 -13 -10 -13 -5 0 -10 -7 -10 -15 0 -8 -4
-15 -10 -15 -5 0 -10 -5 -10 -11 0 -6 -14 -31 -30 -56 -17 -25 -42 -68 -56
-97 -15 -28 -33 -59 -42 -68 -8 -10 -12 -18 -8 -18 3 0 -6 -19 -21 -42 -14
-24 -26 -44 -25 -46 3 -2 -14 -42 -54 -127 -15 -33 -28 -62 -29 -65 -4 -20
-39 -117 -45 -125 -8 -11 -59 -165 -65 -196 -2 -10 -7 -24 -10 -30 -4 -5 -9
-25 -12 -42 -3 -18 -9 -40 -14 -49 -5 -10 -7 -18 -5 -18 3 0 1 -11 -4 -26 -6
-14 -12 -43 -15 -65 -3 -22 -9 -49 -15 -59 -5 -10 -10 -34 -10 -54 0 -19 -4
-46 -9 -59 -5 -14 -13 -51 -16 -83 -3 -33 -8 -77 -11 -99 -16 -135 -19 -207
-18 -450 1 -148 4 -290 7 -315 8 -55 19 -159 20 -182 1 -10 4 -18 7 -18 3 0 5
-15 4 -32 -1 -18 2 -40 7 -49 4 -9 11 -36 14 -59 3 -23 7 -46 10 -50 3 -4 7
-23 9 -41 9 -65 17 -102 27 -121 6 -10 11 -29 13 -41 1 -12 5 -29 8 -37 18
-45 27 -83 22 -91 -3 -5 -1 -9 5 -9 10 0 31 -63 34 -101 1 -11 4 -19 7 -19 3
0 16 -33 29 -73 14 -39 30 -79 38 -88 7 -8 13 -21 13 -28 0 -7 9 -30 19 -50
11 -20 34 -67 51 -106 18 -38 36 -77 41 -85 4 -8 22 -39 39 -67 16 -29 30 -57
30 -63 0 -5 5 -10 11 -10 5 0 8 -4 5 -9 -3 -5 1 -14 9 -21 8 -7 15 -18 15 -25
0 -8 3 -15 8 -17 11 -5 83 -118 75 -118 -4 0 2 -6 13 -14 10 -8 19 -18 19 -23
0 -5 10 -19 22 -33 13 -13 23 -28 23 -33 0 -9 48 -71 94 -119 15 -17 29 -36
30 -42 1 -6 17 -27 36 -46 31 -31 129 -140 188 -207 11 -13 23 -23 28 -23 5 0
20 -16 34 -35 14 -18 33 -36 44 -39 10 -2 15 -9 11 -15 -3 -6 0 -11 9 -11 8 0
16 -3 18 -8 2 -6 65 -61 153 -133 9 -8 25 -22 36 -31 10 -10 23 -18 28 -18 5
0 14 -7 21 -15 11 -13 122 -91 230 -162 19 -12 40 -26 45 -31 6 -4 25 -14 43
-21 17 -7 32 -17 32 -21 0 -4 11 -11 25 -14 14 -4 25 -11 25 -16 0 -6 7 -10
15 -10 8 0 15 -4 15 -10 0 -5 3 -9 8 -9 14 3 72 -23 72 -32 0 -5 9 -9 20 -9
11 0 20 -5 20 -11 0 -5 4 -7 10 -4 5 3 10 2 10 -4 0 -6 16 -13 35 -17 19 -3
38 -11 41 -16 6 -9 47 -29 72 -34 7 -1 24 -9 37 -18 13 -9 31 -16 38 -16 13 0
131 -44 192 -70 11 -5 40 -14 65 -20 25 -6 52 -14 60 -17 18 -7 40 -14 60 -17
8 -1 26 -6 38 -10 13 -4 34 -9 45 -11 12 -2 44 -11 71 -19 27 -9 64 -16 83
-16 18 0 33 -5 33 -12 0 -6 3 -9 6 -5 3 3 18 1 32 -4 18 -7 28 -6 34 3 5 9 8
9 8 1 0 -6 8 -12 18 -11 9 0 33 -3 52 -7 19 -4 45 -6 58 -6 12 0 22 -4 22 -9
0 -6 9 -6 25 0 14 5 25 6 25 2 0 -4 17 -8 38 -10 84 -6 619 -8 635 -3 14 5 8
15 -31 57 -26 28 -67 74 -92 103 -25 29 -54 62 -65 75 -51 58 -96 116 -95 121
1 4 -9 19 -22 33 -13 15 -40 49 -59 75 -19 26 -45 63 -59 81 -30 41 -38 52
-95 141 -25 39 -53 81 -63 94 -9 13 -31 50 -48 82 -17 32 -36 65 -43 73 -8 9
-11 16 -7 16 3 0 -7 21 -22 48 -28 47 -81 156 -83 170 -1 4 -10 24 -21 46 -40
78 -91 234 -122 369 -4 15 -12 27 -20 27 -7 0 -31 8 -52 17 -22 9 -41 17 -44
18 -3 1 -18 8 -35 15 -16 7 -33 13 -37 12 -5 -1 -8 3 -8 9 0 5 -4 8 -9 4 -5
-3 -13 0 -16 5 -4 6 -32 23 -63 37 -55 25 -244 144 -270 169 -7 8 -16 14 -20
14 -14 0 -237 214 -299 287 -66 77 -173 227 -173 242 0 6 -4 11 -9 11 -11 0
-131 236 -124 244 4 3 1 6 -5 6 -7 0 -12 5 -12 10 0 6 -7 27 -17 48 -9 20 -15
43 -14 50 1 6 -3 12 -9 12 -5 0 -10 8 -10 18 0 9 -7 36 -15 59 -8 22 -16 52
-19 65 -2 12 -11 49 -20 82 -9 32 -13 62 -11 67 3 4 1 10 -4 14 -5 3 -10 13
-9 23 0 9 -3 35 -7 57 -14 81 -21 412 -11 485 2 14 6 50 10 80 7 54 10 72 40
200 21 87 61 211 80 249 9 16 17 38 19 48 2 10 14 38 27 63 12 25 22 46 22 47
-1 2 14 29 33 62 19 33 35 64 35 70 0 6 5 11 10 11 6 0 10 7 10 15 0 8 5 15
10 15 6 0 10 4 10 10 0 11 64 103 97 140 13 14 23 28 23 33 0 4 18 26 40 47
23 22 38 40 35 40 -14 0 256 251 279 259 6 2 13 7 16 11 3 4 37 29 75 54 39
25 75 49 80 53 6 5 22 14 38 20 15 7 27 17 27 23 0 5 6 9 13 7 26 -5 1 256
-37 388 -2 6 -6 24 -11 40 -16 63 -48 160 -56 170 -4 6 -10 23 -13 39 -3 15
-10 34 -17 42 -6 8 -9 14 -5 14 4 0 -3 18 -14 40 -11 21 -20 46 -20 55 0 8 -4
15 -10 15 -5 0 -10 6 -10 14 0 17 -95 214 -150 311 -21 39 -43 77 -46 85 -4 8
-10 17 -13 20 -4 3 -15 22 -26 43 -11 20 -23 37 -27 37 -5 0 -8 5 -8 10 0 22
-51 90 -68 90 -9 0 -62 -24 -117 -53z"/>
</g>
</svg>
