<?xml version="1.0" encoding="UTF-8" standalone="no"?>
<svg width="800" height="800" viewBox="0 0 800 900" version="1.1" id="svg1" xml:space="preserve"
  sodipodi:docname="LogitechPro3D.svg" inkscape:version="1.2.2 (b0a84865, 2022-12-01)"
  xmlns:inkscape="http://www.inkscape.org/namespaces/inkscape"
  xmlns:sodipodi="http://sodipodi.sourceforge.net/DTD/sodipodi-0.dtd" xmlns="http://www.w3.org/2000/svg"
  xmlns:svg="http://www.w3.org/2000/svg">
  <sodipodi:namedview id="namedview192" pagecolor="#ffffff" bordercolor="#000000" borderopacity="0.25"
    inkscape:showpageshadow="2" inkscape:pageopacity="0.0" inkscape:pagecheckerboard="0" inkscape:deskcolor="#d1d1d1"
    showgrid="false" inkscape:zoom="2.8193762" inkscape:cx="302.19451" inkscape:cy="478.29729"
    inkscape:window-width="3840" inkscape:window-height="2107" inkscape:window-x="0" inkscape:window-y="25"
    inkscape:window-maximized="1" inkscape:current-layer="svg1" />
  <defs id="defs1" />
  <g id="g23" transform="matrix(0.78166011,0,0,0.78166011,109.89178,26.926852)">
    <path id="path_b0" d="m 372.93283,331.56362 1.72946,-26.80666 46.69548,0.86473 v 26.80666 z" fill="transparent"
      cursor="pointer" stroke="#747474" stroke-width="2.5" opacity="0.5" stroke-opacity="0.5" />
    <path id="path_b1"
      d="m 328.87931,415.65411 11.24151,31.99505 4.32365,25.94193 -10.37677,1.72947 -13.8357,-24.21247 z"
      fill="transparent" cursor="pointer" stroke="#747474" stroke-width="2.5" opacity="0.5" stroke-opacity="0.50" />
    <path id="path_b2"
      d="m 349.35134,417.66509 20.75355,-13.83569 25.0772,26.80666 -12.97097,30.26558 -11.2415,1.72947 z"
      fill="transparent" cursor="pointer" stroke="#747474" stroke-width="2.5" opacity="0.5" stroke-opacity="0.50" />
    <path id="path_b3"
      d="m 430.63606,404.69413 23.34774,14.70042 -21.61828,42.37182 h -12.10623 l -13.8357,-24.21246 2.59419,-8.64731 z"
      fill="transparent" cursor="pointer" stroke="#747474" stroke-width="2.5" opacity="0.5" stroke-opacity="0.50" />
    <path id="path_b4"
      d="m 357.99865,366.64596 -19.88881,0.86473 -0.86473,13.8357 7.78258,26.80666 2.59419,1.72946 19.88881,-12.10623 v -7.78258 z"
      fill="transparent" cursor="pointer" stroke="#747474" stroke-width="2.5" opacity="0.5" stroke-opacity="0.50" />
    <path id="path_b5"
      d="m 439.28337,365.78123 24.21247,0.86473 0.86473,6.05312 -6.05312,31.13032 -5.18839,5.18838 -19.88881,-14.70042 z"
      fill="transparent" cursor="pointer" stroke="#747474" stroke-width="2.5" opacity="0.5" stroke-opacity="0.50" />
    <path id="path_b6"
      d="m 280.17285,410.74723 20.75355,21.61828 -59.66644,60.53117 -29.40087,-13.8357 32.85979,-41.50709 z"
      fill="transparent" cursor="pointer" stroke="#747474" stroke-width="2.5" opacity="0.5" stroke-opacity="0.50" />
    <path id="path_b7"
      d="m 304.38532,446.2012 -50.1544,48.42494 25.94193,19.02408 6.91785,-4.32365 6.91785,-6.91785 4.32365,-18.15935 8.64731,-7.78258 9.51204,-11.2415 z"
      fill="transparent" cursor="pointer" stroke="#747474" stroke-width="2.5" opacity="0.5" stroke-opacity="0.50" />
    <path id="path_b8"
      d="m 202.34706,492.03195 30.26559,12.97096 -19.88882,76.96106 -35.45397,1.72946 -0.86474,-16.42989 z"
      fill="transparent" cursor="pointer" stroke="#747474" stroke-width="2.5" opacity="0.5" stroke-opacity="0.50" />
    <path id="path_b9"
      d="m 245.58361,510.1913 31.99505,13.83569 -7.78258,18.15935 -11.2415,6.05312 -7.78258,33.72451 h -25.94193 l 8.64731,-46.69547 z"
      fill="transparent" cursor="pointer" stroke="#747474" stroke-width="2.5" opacity="0.5" stroke-opacity="0.50" />
    <path id="path_b10" fill="transparent" cursor="pointer" stroke="#747474" stroke-width="2.5" opacity="0.5"
      stroke-opacity="0.50"
      d="m 176.40512,599.25859 35.45397,-1.72946 3.45894,33.72451 18.15935,39.77763 -0.86473,6.05312 -30.2656,15.56516 h -5.18838 l -15.56516,-49.28967 z" />
    <path id="path_b11"
      d="m 250.772,594.93493 -21.61828,0.86474 -5.18838,5.18838 6.05311,35.45397 13.8357,31.13033 29.40085,-14.70043 1.72947,-5.18838 -2.5942,-10.37679 -9.51204,-4.32365 -7.78258,-11.2415 z"
      fill="transparent" cursor="pointer" stroke="#747474" stroke-width="2.5" opacity="0.5" stroke-opacity="0.50" />
    <path id="path_b12"
      d="m 316.00084,807.79895 h -19.18946 l -5.90446,14.36029 10.3328,9.57353 42.80727,1.43603 36.16476,-20.10441 -11.07085,-6.70147 z"
      fill="transparent" cursor="pointer" stroke="#747474" stroke-width="2.5" opacity="0.5" stroke-opacity="0.50" />
    <ellipse id="path_b13" fill="transparent" cursor="pointer" stroke="#747474" stroke-width="2.5" opacity="0.5"
      stroke-opacity="0.50" cx="406.59854" cy="599.341" rx="110.57965" ry="105.88194" />
    <ellipse id="path_b14" fill="transparent" cursor="pointer" stroke="#747474" stroke-width="2.5" opacity="0.5"
      stroke-opacity="0.50" cx="405.12646" cy="590.17889" rx="70.475578" ry="66.151924" />
    <ellipse id="path_b15" fill="transparent" cursor="pointer" stroke="#747474" stroke-width="2.5" opacity="0.5"
      stroke-opacity="0.50" cx="399.73901" cy="385.90332" rx="19.436991" ry="19.436993" />
  </g>
  <g id="g22" style="display:inline" transform="matrix(0.78166011,0,0,0.78166011,109.89178,26.926852)">
    <path
      d="m 163.50553,314.90838 -71.223169,64.60214 -2.459797,116.76361 43.663976,49.78244 0.15062,118.4718 -48.031787,46.24284 3.644537,122.76628 68.03138,67.73275 128.87059,2.35617 24.06399,-17.5015 153.05845,-0.44467 24.35261,16.22186 128.85384,0.62774 63.43285,-65.40073 4.09398,-128.0202 -43.64916,-48.05203 -0.13583,-116.74335 42.03848,-39.27333 -5.36754,-121.88625 -65.40073,-63.43286 -117.6732,-7.63969 -27.57271,11.47857 -7.6645,13.90204 -147.86373,1.26549 -18.36476,-24.0566 z"
      fill="none" cursor="pointer" stroke="#747474" stroke-width="4" opacity="0.5" stroke-opacity="0.50"
      id="path_outer_body" />
    <path fill="none" cursor="pointer" stroke="#747474" stroke-width="4" opacity="0.5" stroke-opacity="0.50"
      d="M 265.00835,348.15428 149.97253,476.83364 142.12599,722.95175 290.10172,880.32678 478.71068,879.44844 633.94797,711.97021 630.2816,468.72211 501.67971,348.1453 Z"
      id="path_inner_body" />
    <ellipse fill="none" cursor="pointer" stroke="#747474" stroke-width="4" opacity="0.5" stroke-opacity="0.50"
      id="path_axis_b10" cx="404.78665" cy="590.44641" rx="87.574654" ry="82.925179" />
    <ellipse id="path_axis_b15" fill="none" cursor="pointer" stroke="#747474" stroke-width="4" opacity="0.5"
      stroke-opacity="0.50" cx="400.8028" cy="386.53476" rx="29.57489" ry="29.142525" />
    <rect fill="none" cursor="pointer" stroke="#747474" stroke-width="4" opacity="0.5" stroke-opacity="0.50"
      id="path_axis_b12" width="117.68973" height="70.994255" x="276.67075" y="776.48529" />
    <ellipse fill="none" cursor="pointer" stroke="#747474" stroke-width="4" opacity="0.5" stroke-opacity="0.50"
      id="path_axis_b13" cx="409.01776" cy="599.91418" rx="132.68013" ry="127.70092" />
  </g>
  <g id="g28">
    <path id="path_line_b0" fill="none" stroke="#747474" stroke-linecap="round" stroke-width="2"
      d="m 255.62354,185.35175 102.79036,-0.0556 63.92391,89.64256" sodipodi:nodetypes="ccc" />
    <path id="path_line_b1" fill="none" stroke="#747474" stroke-linecap="round" stroke-width="2"
      d="m 366.56266,369.55501 -91.38188,-67.54573 -154.0081,0.39431" sodipodi:nodetypes="ccc" />
    <path id="path_line_b2" fill="none" stroke="#747474" stroke-linecap="round" stroke-width="2"
      d="m 397.23423,365.06648 -11.84795,0.10035 -116.1173,-104.12559 -103.67261,1.01435" sodipodi:nodetypes="cccc" />
    <path id="path_line_b3" fill="none" stroke="#747474" stroke-linecap="round" stroke-width="2"
      d="m 445.1118,364.3184 h 29.69076 l 49.6599,-72.24627 122.33842,0.39903" sodipodi:nodetypes="cccc" />
    <path id="path_line_b4" fill="none" stroke="#747474" stroke-linecap="round" stroke-width="2"
      d="m 386.01292,324.66978 -93.32616,-100.18542 -84.9667,0.43642" sodipodi:nodetypes="ccc" />
    <path id="path_line_b5" fill="none" stroke="#747474" stroke-linecap="round" stroke-width="2"
      d="m 457.82928,327.66213 61.25415,-80.37728 123.57265,0.70771" sodipodi:nodetypes="ccc" />
    <path id="path_line_b6" fill="none" stroke="#747474" stroke-linecap="round" stroke-width="2"
      d="m 306.7157,383.02057 -59.54553,26.75117 -130.56986,-0.39903" sodipodi:nodetypes="ccc" />
    <path id="path_line_b7" fill="none" stroke="#747474" stroke-linecap="round" stroke-width="2"
      d="m 346.36431,387.5091 -52.16625,-32.61071 -177.54779,0" sodipodi:nodetypes="ccc" />
    <path id="path_line_b8" fill="none" stroke="#747474" stroke-linecap="round" stroke-width="2"
      d="m 272.30369,440.62328 -77.64172,36.2074 -72.77375,-10e-6" sodipodi:nodetypes="ccc" />
    <path id="path_line_b9" fill="none" stroke="#747474" stroke-linecap="round" stroke-width="2"
      d="M 302.27714,457.73003 198.5328,530.44837 124.0832,530.8474" sodipodi:nodetypes="ccc" />


    <path id="path_line_b10" fill="none" stroke="#747474" stroke-linecap="round" stroke-width="2"
      d="m 267.16767,533.93631 -64.18618,57.45952 -78.20084,1.19708" sodipodi:nodetypes="ccc" />
    <path id="path_line_b11" fill="none" stroke="#747474" stroke-linecap="round" stroke-width="2"
      d="m 310.45613,537.1265 -80.68591,112.91923 -100.6003,1.19707" sodipodi:nodetypes="ccc" />
    <path id="path_line_b12" fill="none" stroke="#747474" stroke-linecap="round" stroke-width="2"
      d="M 368.80692,666.54557 310.1577,702.01434 146.62506,701.70566" sodipodi:nodetypes="ccc" />
    <path id="path_line_b13" fill="none" stroke="#747474" stroke-linecap="round" stroke-width="2"
      d="m 468.3025,552.83633 80.9815,62.09123 h 114.26922" sodipodi:nodetypes="ccc" />
    <path id="path_line_b14" fill="none" stroke="#747474" stroke-linecap="round" stroke-width="2"
      d="m 472.79102,492.24128 88.11539,-34.71513 89.53031,0.39903" sodipodi:nodetypes="ccc" />
    <path id="path_line_b15" fill="none" stroke="#747474" stroke-linecap="round" stroke-width="2"
      d="m 428.65388,327.66213 84.66865,-114.72286 107.4898,-0.22039" sodipodi:nodetypes="ccc" />

  </g>
  <g id="g33">
    <text id="text_b0" xml:space="preserve" text-anchor="end" font-style="normal" font-variant="normal"
      font-weight="500" font-stretch="normal" font-size="22.6667px" font-family="'Fira Mono for Powerline'"
      fill="#808080" x="249.89542" y="193.75351">X</text>
    <text id="text_b1" xml:space="preserve" text-anchor="end" font-style="normal" font-variant="normal"
      font-weight="500" font-stretch="normal" font-size="22.6667px" font-family="'Fira Mono for Powerline'"
      fill="#808080" x="112.60052" y="308.19125">X</text>
    <text id="text_b2" xml:space="preserve" text-anchor="end" font-style="normal" font-variant="normal"
      font-weight="500" font-stretch="normal" font-size="22.6667px" font-family="'Fira Mono for Powerline'"
      fill="#808080" x="152.90459" y="269.32501">X</text>
    <text id="text_b3" xml:space="preserve" text-anchor="start" font-style="normal" font-variant="normal"
      font-weight="500" font-stretch="normal" font-size="22.6667px" font-family="'Fira Mono for Powerline'"
      fill="#808080" x="655.00989" y="300.45837">X</text>
    <text id="text_b4" xml:space="preserve" text-anchor="end" font-style="normal" font-variant="normal"
      font-weight="500" font-stretch="normal" font-size="22.6667px" font-family="'Fira Mono for Powerline'"
      fill="#808080" x="195.71342" y="232.73126">X</text>
    <text id="text_b5" xml:space="preserve" text-anchor="start" font-style="normal" font-variant="normal"
      font-weight="500" font-stretch="normal" font-size="22.6667px" font-family="'Fira Mono for Powerline'"
      fill="#808080" x="652.09045" y="257.52121">X</text>
    <text id="text_b6" xml:space="preserve" text-anchor="end" font-style="normal" font-variant="normal"
      font-weight="500" font-stretch="normal" font-size="22.6667px" font-family="'Fira Mono for Powerline'"
      fill="#808080" x="109.19443" y="417.6459">X</text>
    <text id="text_b7" xml:space="preserve" text-anchor="end" font-style="normal" font-variant="normal"
      font-weight="500" font-stretch="normal" font-size="22.6667px" font-family="'Fira Mono for Powerline'"
      fill="#808080" x="107.46071" y="363.18344">X</text>
    <text id="text_b8" xml:space="preserve" text-anchor="end" font-style="normal" font-variant="normal"
      font-weight="500" font-stretch="normal" font-size="22.6667px" font-family="'Fira Mono for Powerline'"
      fill="#808080" x="111.10081" y="483.61972">X</text>
    <text id="text_b9" xml:space="preserve" text-anchor="end" font-style="normal" font-variant="normal"
      font-weight="500" font-stretch="normal" font-size="22.6667px" font-family="'Fira Mono for Powerline'"
      fill="#808080" x="115.53038" y="539.64703">X</text>

    <text id="text_b10" xml:space="preserve" text-anchor="end" font-style="normal" font-variant="normal"
      font-weight="500" font-stretch="normal" font-size="22.6667px" font-family="'Fira Mono for Powerline'"
      fill="#808080" x="117.28543" y="601.01959">X</text>
    <text id="text_b11" xml:space="preserve" text-anchor="end" font-style="normal" font-variant="normal"
      font-weight="500" font-stretch="normal" font-size="22.6667px" font-family="'Fira Mono for Powerline'"
      fill="#808080" x="123.79371" y="659.28314">X</text>

    <text id="text_b12" xml:space="preserve" text-anchor="end" font-style="normal" font-variant="normal"
      font-weight="500" font-stretch="normal" font-size="22.6667px" font-family="'Fira Mono for Powerline'"
      fill="#808080" x="144.25543" y="710.05176">X</text>
    <text id="text_b13" xml:space="preserve" text-anchor="start" font-style="normal" font-variant="normal"
      font-weight="500" font-stretch="normal" font-size="22.6667px" font-family="'Fira Mono for Powerline'"
      fill="#808080" x="664.80914" y="622.75195">X</text>
    <text id="text_b14" xml:space="preserve" text-anchor="start" font-style="normal" font-variant="normal"
      font-weight="500" font-stretch="normal" font-size="22.6667px" font-family="'Fira Mono for Powerline'"
      fill="#808080" x="659.74261" y="466.77509">X</text>
    <text id="text_b15" xml:space="preserve" text-anchor="start" font-style="normal" font-variant="normal"
      font-weight="500" font-stretch="normal" font-size="22.6667px" font-family="'Fira Mono for Powerline'"
      fill="#808080" x="631.70935" y="221.7836">X</text>

  </g>
</svg>