<?xml version="1.0" encoding="UTF-8" standalone="no"?>
<svg width="1250" height="650" viewBox="0 0 1250 649.99996" version="1.1" id="svg75" sodipodi:docname="PS4.svg"
   fill="none" inkscape:version="1.2.2 (b0a84865, 2022-12-01)"
   xmlns:inkscape="http://www.inkscape.org/namespaces/inkscape"
   xmlns:sodipodi="http://sodipodi.sourceforge.net/DTD/sodipodi-0.dtd" xmlns="http://www.w3.org/2000/svg"
   xmlns:svg="http://www.w3.org/2000/svg">
   <defs id="defs79" />
   <sodipodi:namedview id="namedview77" pagecolor="#ffffff" bordercolor="#666666" borderopacity="1.0"
      inkscape:showpageshadow="2" inkscape:pageopacity="0.0" inkscape:pagecheckerboard="0" inkscape:deskcolor="#d1d1d1"
      showgrid="false" inkscape:zoom="0.83353725" inkscape:cx="612.45013" inkscape:cy="418.09769"
      inkscape:window-width="1670" inkscape:window-height="987" inkscape:window-x="5" inkscape:window-y="30"
      inkscape:window-maximized="0" inkscape:current-layer="group_texts" />
   <g id="group_texts" transform="translate(43.758245,11.51837)">
      <g id="inputs" transform="translate(62.01935,48.731714)">
         <circle id="path_b0" cx="746.7796" cy="271.73987" r="21.843" fill="transparent" cursor="pointer"
            stroke="#FFFFFF" stroke-width="2" opacity="0.5" />
         <circle id="path_b1" cx="796.9986" cy="219.13887" r="21.843" fill="transparent" cursor="pointer"
            stroke="#FFFFFF" stroke-width="2" opacity="0.5" />
         <circle id="path_b2" cx="694.11157" cy="219.13887" r="21.843" fill="transparent" cursor="pointer"
            stroke="#FFFFFF" stroke-width="2" opacity="0.5" />
         <circle id="path_b3" cx="744.73859" cy="168.91986" r="21.843" fill="transparent" cursor="pointer"
            stroke="#FFFFFF" stroke-width="2" opacity="0.5" />
         <path id="path_b4"
            d="m 306.72072,100.09626 11.7827,17.0901 34.4929,1.6317 -0.3052,-12.3798 c 0,0 -17.3405,-4.6021 -26.2154,-5.7018 -6.5385,-0.810195 -19.755,-0.6402 -19.755,-0.6402 z"
            fill="transparent" cursor="pointer" stroke="#FFFFFF" stroke-width="2.5" opacity="0.5"
            stroke-opacity="0.25" />
         <path id="path_b5"
            d="m 740.99702,100.49376 -11.7295,16.683 -34.3366,1.5929 0.3026,-12.085 c 0,0 17.2622,-4.4925 26.0968,-5.566 6.509,-0.7909 19.6657,-0.6249 19.6657,-0.6249 z"
            fill="transparent" cursor="pointer" stroke="#FFFFFF" stroke-width="2.5" opacity="0.5"
            stroke-opacity="0.25" />
         <path id="path_b6"
            d="m 306.81016,100.24235 11.7977,16.97689 -50.31608,-1.04726 -0.33349,-4.00264 c 0,0 11.69879,-7.32995 18.22092,-9.3418 6.62284,-2.04291 20.63095,-2.58519 20.63095,-2.58519 z"
            fill="transparent" cursor="pointer" stroke="#FFFFFF" stroke-width="2.5" opacity="0.5"
            stroke-opacity="0.25" />
         <path id="path_b7"
            d="m 740.90782,100.63626 -11.7442,16.5726 50.0884,-1.0223 0.3321,-3.9072 c 0,0 -11.6459,-7.1555 -18.1385,-9.1194 -6.5929,-1.9943 -20.5378,-2.5237 -20.5378,-2.5237 z"
            fill="transparent" cursor="pointer" stroke="#FFFFFF" stroke-width="2.5" opacity="0.5"
            stroke-opacity="0.25" />
         <rect id="path_b8" width="23.408001" height="39.466999" rx="11.704" fill="transparent" cursor="pointer"
            stroke="#FFFFFF" stroke-width="2" x="372.82162" y="133.44887" opacity="0.5" />
         <rect id="path_b9" width="23.408001" height="39.466999" rx="11.704" fill="transparent" cursor="pointer"
            stroke="#FFFFFF" stroke-width="2" x="659.07758" y="130.74586" opacity="0.5" />
         <circle id="path_b10" cx="412.80762" cy="315.54785" r="27.65" fill="transparent" cursor="pointer"
            stroke="#FFFFFF" stroke-width="2" opacity="0.5" />
         <circle id="path_b11" cx="635.8656" cy="315.54785" r="27.65" fill="transparent" cursor="pointer"
            stroke="#FFFFFF" stroke-width="2" opacity="0.5" />
         <path id="path_b12"
            d="m 290.66562,164.22486 h 22.443 a 7.5,7.5 0 0 1 7.5,7.5 v 19.613 a 7.493,7.493 0 0 1 -2.2,5.3 l -10.877,10.872 a 7.5,7.5 0 0 1 -10.6,0 l -11.237,-11.235 a 7.5,7.5 0 0 1 -2.194,-5.172 l -0.328,-19.254 a 7.5,7.5 0 0 1 7.493,-7.624 z"
            fill="transparent" cursor="pointer" stroke="#FFFFFF" stroke-width="2" opacity="0.5" />
         <path id="path_b13"
            d="m 313.10862,276.66386 h -22.443 a 7.5,7.5 0 0 1 -7.5,-7.495 v -19.613 a 7.5,7.5 0 0 1 2.2,-5.3 l 10.879,-10.877 a 7.5,7.5 0 0 1 10.6,0 l 11.236,11.237 a 7.5,7.5 0 0 1 2.194,5.172 l 0.328,19.254 a 7.5,7.5 0 0 1 -7.494,7.622 z"
            fill="transparent" cursor="pointer" stroke="#FFFFFF" stroke-width="2" opacity="0.5" />
         <path id="path_b14"
            d="m 246.28062,231.72486 v -22.442 a 7.5,7.5 0 0 1 7.5,-7.495 h 19.613 a 7.494,7.494 0 0 1 5.3,2.2 l 10.878,10.878 a 7.5,7.5 0 0 1 0,10.6 l -11.237,11.236 a 7.5,7.5 0 0 1 -5.171,2.195 l -19.254,0.328 a 7.5,7.5 0 0 1 -7.629,-7.5 z"
            fill="transparent" cursor="pointer" stroke="#FFFFFF" stroke-width="2" opacity="0.5" />
         <path id="path_b15"
            d="m 357.29062,209.28186 v 22.443 a 7.5,7.5 0 0 1 -7.5,7.5 h -19.609 a 7.494,7.494 0 0 1 -5.3,-2.2 l -10.878,-10.877 a 7.5,7.5 0 0 1 0,-10.6 l 11.237,-11.237 a 7.5,7.5 0 0 1 5.171,-2.194 l 19.26,-0.329 a 7.5,7.5 0 0 1 7.619,7.494 z"
            fill="transparent" cursor="pointer" stroke="#FFFFFF" stroke-width="2" opacity="0.5" />
         <circle id="path_b16" cx="523.71057" cy="320.99185" r="20.006001" fill="transparent" cursor="pointer"
            stroke="#FFFFFF" stroke-width="2" opacity="0.5" />
         <path id="path_b17"
            d="m 427.16362,109.40186 h 193.895 a 17.867,17.867 0 0 1 17.822,17.911 v 91.154 a 17.867,17.867 0 0 1 -17.822,17.911 h -193.895 a 17.867,17.867 0 0 1 -17.822,-17.911 v -91.154 a 17.867,17.867 0 0 1 17.822,-17.911 z"
            fill="transparent" cursor="pointer" stroke="#FFFFFF" stroke-width="3" opacity="0.5" />
      </g>
      <g id="group_body" transform="translate(62.01935,48.731714)">
         <circle cx="635.18463" cy="315.86685" r="45.762001" fill="none" id="path_axis_b15" opacity="0.5"
            stroke="#FFFFFF" stroke-width="4" />
         <circle cx="411.30063" cy="315.86685" r="45.762001" fill="none" id="path_axis_b14" opacity="0.5"
            stroke="#FFFFFF" stroke-width="4" />
         <path id="path_left_body"
            d="m 411.62862,118.33886 c 0,0 -23.6,11.613 -58.741,0 v -11.509 c -5.844,-2.541 -13.7,-5.182 -27.456,-6.407 -24.045,-2.139995 -41.164,0.066 -58.025,11.335 v 4.262 a 30.665,30.665 0 0 0 -6.625,5.854 c -12.247,14.289 -47.273,74.291 -66.125,179.622 -9.707,54.235 -16.938,97.438 -18.775,129.944 -4.021,42.239 11.4,65.932 11.4,65.932 32.971,47.877 79.599,37.145 79.599,37.145 16.919,-3.757 43.885,-15.017 53.157,-49.381 0,0 22.67,-92.43 33.854,-99.141 12.248,-7.349 11.656,-8.851 15.433,-8.034 3.777,0.817 18.781,13.065 36.95,13.575 18.169,0.51 32.458,-2.245 40.012,-7.043 7.554,-4.798 12.351,-11.126 14.086,-11.228 0.9,-0.053 23.163,-0.051 44.5,-0.037 v 0.037 c 0,0 8.259,-0.01 19.578,-0.021"
            fill="none" stroke="#FFFFFF" stroke-width="4" opacity="0.5" />
         <path id="path_right_body"
            d="m 635.80062,118.33886 c 0,0 23.6,11.613 58.741,0 v -11.509 c 5.844,-2.541 13.7,-5.182 27.456,-6.407 24.045,-2.139995 41.164,0.066 58.025,11.335 v 4.262 a 30.664,30.664 0 0 1 6.625,5.854 c 12.247,14.289 47.273,74.291 66.125,179.622 9.707,54.235 16.938,97.438 18.775,129.944 4.021,42.24 -11.4,65.932 -11.4,65.932 -32.971,47.877 -79.6,37.145 -79.6,37.145 -16.919,-3.757 -43.885,-15.017 -53.157,-49.381 0,0 -22.67,-92.43 -33.854,-99.141 -12.248,-7.349 -11.656,-8.851 -15.433,-8.035 -3.777,0.816 -18.781,13.065 -36.95,13.575 -18.169,0.51 -32.458,-2.245 -40.012,-7.043 -7.554,-4.798 -12.351,-11.126 -14.086,-11.228 -0.9,-0.052 -23.163,-0.051 -44.5,-0.037 v 0.037 c 0,0 -8.259,-0.01 -19.578,-0.021"
            fill="none" stroke="#FFFFFF" stroke-width="4" opacity="0.5" />
      </g>
      <g id="group_lines_left" transform="translate(171.94581,93.421074)">
         <path id="path_line_b4" d="M -18.947044,-2.56115 157.70825,-2.0932266 223.28779,62.424188" fill="none"
            stroke="#FFFFFF" stroke-linecap="round" stroke-width="2" />
         <path id="path_line_b6" d="M 181.52379,63.568188 147.6604,47.684859 -24.356438,47.739348" fill="none"
            stroke="#FFFFFF" stroke-linecap="round" stroke-width="2" />
         <path id="path_line_b8" d="m -19.10738,-43.906413 205.17556,-0.760886 89.11861,146.639489" fill="none"
            stroke="#FFFFFF" stroke-linecap="round" stroke-width="2" />
         <path id="path_line_b10" d="m 303.16763,270.00031 -82.8484,0.13545 -106.66509,116.0396 -135.755295,0.17626"
            fill="none" stroke="#FFFFFF" stroke-linecap="round" stroke-width="2" />
         <path id="path_line_b12" d="M 192.79169,132.58449 141.15682,116.14148 -22.330919,115.95534" fill="none"
            stroke="#FFFFFF" stroke-linecap="round" stroke-width="2" stroke-dasharray="none" />
         <path id="path_line_b13" d="M -20.690851,315.24462 H 95.895334 L 190.3204,207.83915" fill="none"
            stroke="#FFFFFF" stroke-linecap="round" stroke-width="2" />
         <path id="path_line_b14" d="M -18.533706,174.37618 H 154.98969" fill="none" stroke="#FFFFFF"
            stroke-linecap="round" stroke-width="2" />
         <path id="path_line_b15" d="m -18.902687,240.16084 147.074517,0.42316 65.57077,-67.94472 33.81475,0.14544"
            fill="none" stroke="#FFFFFF" stroke-linecap="round" stroke-width="2" opacity="0.99"
            stroke-dasharray="none" />
      </g>
      <g id="group_lines_right" transform="matrix(-1,0,0,1,1007.3525,93.421074)">
         <path id="path_line_b0" d="M -20.690851,315.24462 H 95.895334 l 95.546056,-92.83259" fill="none"
            stroke="#FFFFFF" stroke-linecap="round" stroke-width="2" />
         <path id="path_line_b1" d="M -18.533706,174.37618 H 142.65879" fill="none" stroke="#FFFFFF"
            stroke-linecap="round" stroke-width="2" />
         <path id="path_line_b2" d="m -18.902687,240.16084 147.074517,0.42316 65.57077,-67.94472 51.19011,0.14544"
            fill="none" stroke="#FFFFFF" stroke-linecap="round" stroke-width="2" opacity="0.99"
            stroke-dasharray="none" />
         <path id="path_line_b3" d="m 197.27565,125.85854 -56.11883,-9.71706 -163.487739,-0.18614" fill="none"
            stroke="#FFFFFF" stroke-linecap="round" stroke-width="2" stroke-dasharray="none" />
         <path id="path_line_b5" d="M -18.947044,-2.56115 157.70825,-2.0932266 227.77175,64.66617" fill="none"
            stroke="#FFFFFF" stroke-linecap="round" stroke-width="2" />
         <path id="path_line_b7" d="m 192.7337,64.689179 -45.0733,-17.00432 -172.016838,0.05449" fill="none"
            stroke="#FFFFFF" stroke-linecap="round" stroke-width="2" />
         <path id="path_line_b9" d="m -19.10738,-43.906413 205.17556,-0.760886 89.11861,146.639489" fill="none"
            stroke="#FFFFFF" stroke-linecap="round" stroke-width="2" />
         <path id="path_line_b11" d="m 303.16763,270.00031 -82.8484,0.13545 -106.66509,116.0396 -135.755295,0.17626"
            fill="none" stroke="#FFFFFF" stroke-linecap="round" stroke-width="2" />
      </g>
      <g id="group_lines_center">
         <path id="path_line_b16" d="M 587.22097,369.08802 587.0576,472.87825" fill="none" stroke="#FFFFFF"
            stroke-linecap="round" stroke-width="2" />
         <path id="path_line_b17" d="m 585.7753,117.24156 v 96.555" fill="none" stroke="#FFFFFF" stroke-linecap="round"
            stroke-width="2" />
      </g>
      <text xml:space="preserve" x="585.96051" y="110.65378" text-anchor="middle" id="text_b17" font-style="normal"
         font-variant="normal" font-weight="500" font-stretch="normal" font-size="22.6667px"
         font-family="Fira Mono for Powerline" fill="#808080">X</text>
      <text xml:space="preserve" x="587.14172" y="494.68268" text-anchor="middle" id="text_b16" font-style="normal"
         font-variant="normal" font-weight="500" font-stretch="normal" font-size="22.6667px"
         font-family="Fira Mono for Powerline" fill="#808080">X</text>
      <text xml:space="preserve" x="135.88919" y="341.28455" text-anchor="end" id="text_b15" font-style="normal"
         font-variant="normal" font-weight="500" font-stretch="normal" font-size="22.6667px"
         font-family="Fira Mono for Powerline" fill="#808080">X</text>
      <text xml:space="preserve" x="135.88919" y="276.28641" text-anchor="end" id="text_b14" font-style="normal"
         font-variant="normal" font-weight="500" font-stretch="normal" font-size="22.6667px"
         font-family="Fira Mono for Powerline" fill="#808080">X</text>
      <text xml:space="preserve" x="136.72993" y="415.67511" text-anchor="end" id="text_b13" font-style="normal"
         font-variant="normal" font-weight="500" font-stretch="normal" font-size="22.6667px"
         font-family="Fira Mono for Powerline" fill="#808080">X</text>
      <text xml:space="preserve" x="135.88919" y="216.04425" text-anchor="end" id="text_b12" font-style="normal"
         font-variant="normal" font-weight="500" font-stretch="normal" font-size="22.6667px"
         font-family="Fira Mono for Powerline" fill="#808080">X</text>
      <text xml:space="preserve" x="1038.5833" y="487.28174" id="text_b11" inkscape:label="text_b11" font-style="normal"
         font-variant="normal" font-weight="500" font-stretch="normal" font-size="22.6667px"
         font-family="Fira Mono for Powerline" fill="#808080">X</text>
      <text xml:space="preserve" x="139.29646" y="487.20807" id="text_b10" text-anchor="end" inkscape:label="text_b10"
         font-style="normal" font-variant="normal" font-weight="500" font-stretch="normal" font-size="22.6667px"
         font-family="Fira Mono for Powerline" fill="#808080">X</text>
      <text xml:space="preserve" x="1038.5833" y="57.174168" id="text_b9" font-style="normal" font-variant="normal"
         font-weight="500" font-stretch="normal" font-size="22.6667px" font-family="Fira Mono for Powerline"
         fill="#808080">X</text>
      <text xml:space="preserve" x="139.0598" y="57.512169" text-anchor="end" id="text_b8" font-style="normal"
         font-variant="normal" font-weight="500" font-stretch="normal" font-size="22.6667px"
         font-family="Fira Mono for Powerline" fill="#808080">X</text>
      <text xml:space="preserve" x="1038.5833" y="149.46077" id="text_b7" inkscape:label="text_b7" font-style="normal"
         font-variant="normal" font-weight="500" font-stretch="normal" font-size="22.6667px"
         font-family="Fira Mono for Powerline" fill="#808080">X</text>
      <text xml:space="preserve" x="135.88919" y="148.66811" text-anchor="end" id="text_b6" font-style="normal"
         font-variant="normal" font-weight="500" font-stretch="normal" font-size="22.6667px"
         font-family="Fira Mono for Powerline" fill="#808080">X</text>
      <text xml:space="preserve" x="1038.5833" y="96.985855" id="text_b5" font-style="normal" font-variant="normal"
         font-weight="500" font-stretch="normal" font-size="22.6667px" font-family="Fira Mono for Powerline"
         fill="#808080">X</text>
      <text xml:space="preserve" x="140.64514" y="98.730507" text-anchor="end" id="text_b4" font-style="normal"
         font-variant="normal" font-weight="500" font-stretch="normal" font-size="22.6667px"
         font-family="Fira Mono for Powerline" fill="#808080">X</text>
      <text xml:space="preserve" x="1038.5833" y="217.27789" id="text_b3" font-style="normal" font-variant="normal"
         font-weight="500" font-stretch="normal" font-size="22.6667px" font-family="Fira Mono for Powerline"
         fill="#808080">X</text>
      <text xml:space="preserve" x="1038.5833" y="341.72556" id="text_b2" font-style="normal" font-variant="normal"
         font-weight="500" font-stretch="normal" font-size="22.6667px" font-family="Fira Mono for Powerline"
         fill="#808080">X</text>
      <text xml:space="preserve" x="1038.5833" y="276.61475" id="text_b1" font-style="normal" font-variant="normal"
         font-weight="500" font-stretch="normal" font-size="22.6667px" font-family="Fira Mono for Powerline"
         fill="#808080">X</text>
      <text xml:space="preserve" x="1038.5833" y="415.50195" id="text_b0" font-style="normal" font-variant="normal"
         font-weight="500" font-stretch="normal" font-size="22.6667px" font-family="Fira Mono for Powerline"
         fill="#808080">X</text>
   </g>
</svg>