# Magical Arrow (c) by Intel Corporation
#
# Magical Arrow is licensed under a
# Creative Commons Attribution-ShareAlike 4.0 International License.
#
# You should have received a copy of the license along with this
# work. If not, see <http://creativecommons.org/licenses/by-sa/4.0/>.
mtllib arrow.mtl
v 0.000666 0.049328 0.906104
v 0.000666 0.002196 1.000367
v 0.009861 0.048422 0.906104
v 0.018703 0.045740 0.906104
v 0.026851 0.041385 0.906104
v 0.033993 0.035523 0.906104
v 0.039855 0.028381 0.906104
v 0.044210 0.020233 0.906104
v 0.046892 0.011391 0.906104
v 0.047798 0.002196 0.906104
v 0.046892 -0.006999 0.906104
v 0.044210 -0.015840 0.906104
v 0.039855 -0.023989 0.906104
v 0.033993 -0.031131 0.906104
v 0.026851 -0.036992 0.906104
v 0.018703 -0.041348 0.906104
v 0.009861 -0.044030 0.906104
v 0.000666 -0.044935 0.906104
v -0.008529 -0.044030 0.906104
v -0.017370 -0.041348 0.906104
v -0.025519 -0.036992 0.906104
v -0.032661 -0.031131 0.906104
v -0.038522 -0.023989 0.906104
v -0.042878 -0.015840 0.906104
v -0.045560 -0.006999 0.906104
v -0.046465 0.002196 0.906104
v -0.045560 0.011391 0.906104
v -0.042878 0.020233 0.906104
v -0.038522 0.028381 0.906104
v -0.032661 0.035523 0.906104
v -0.025519 0.041385 0.906104
v -0.017370 0.045740 0.906104
v -0.008529 0.048422 0.906104
v -0.004745 0.015259 0.906104
v -0.002092 0.016064 0.906104
v -0.007189 0.013953 0.906104
v -0.009332 0.012194 0.906104
v -0.013202 0.004955 0.906104
v -0.012397 0.007607 0.906104
v -0.011090 0.010052 0.906104
v -0.013473 0.002196 0.906104
v -0.013202 -0.000562 0.906104
v 0.003425 -0.011672 0.906104
v 0.000666 -0.011943 0.906104
v -0.002092 -0.011672 0.906104
v -0.004745 -0.010867 0.906104
v -0.007189 -0.009560 0.906104
v -0.009332 -0.007802 0.906104
v -0.011090 -0.005659 0.906104
v -0.012397 -0.003215 0.906104
v 0.006077 -0.010867 0.906104
v 0.008522 -0.009560 0.906104
v 0.000666 0.016336 0.906104
v 0.010664 -0.007802 0.906104
v 0.012423 -0.005659 0.906104
v 0.003425 0.016064 0.906104
v 0.013729 -0.003215 0.906104
v 0.012423 0.010052 0.906104
v 0.006077 0.015259 0.906104
v 0.010664 0.012194 0.906104
v 0.013729 0.007607 0.906104
v 0.008522 0.013953 0.906104
v 0.014534 -0.000562 0.906104
v 0.014806 0.002196 0.906104
v 0.014534 0.004955 0.906104
v 0.014534 0.004955 0.906104
v 0.008522 0.013953 0.906104
v 0.014806 0.002196 0.906104
v 0.006077 0.015259 0.906104
v 0.003425 0.016064 0.906104
v 0.014534 -0.000562 0.906104
v 0.000666 0.016336 0.906104
v -0.012397 -0.003215 0.906104
v 0.013729 0.007607 0.906104
v -0.011090 -0.005659 0.906104
v -0.009332 -0.007802 0.906104
v 0.010664 0.012194 0.906104
v -0.007189 -0.009560 0.906104
v -0.004745 -0.010867 0.906104
v 0.012423 0.010052 0.906104
v -0.002092 -0.011672 0.906104
v 0.000666 -0.011943 0.906104
v 0.013729 -0.003215 0.906104
v 0.003425 -0.011672 0.906104
v -0.013202 -0.000562 0.906104
v 0.012423 -0.005659 0.906104
v -0.013473 0.002196 0.906104
v -0.011090 0.010052 0.906104
v 0.010664 -0.007802 0.906104
v -0.012397 0.007607 0.906104
v -0.013202 0.004955 0.906104
v 0.008522 -0.009560 0.906104
v -0.009332 0.012194 0.906104
v -0.007189 0.013953 0.906104
v 0.006077 -0.010867 0.906104
v -0.002092 0.016064 0.906104
v -0.004745 0.015259 0.906104
v 0.003425 -0.011672 -0.000000
v 0.000666 -0.011943 -0.000000
v -0.007189 -0.009560 -0.000000
v -0.009332 -0.007802 -0.000000
v -0.011090 -0.005659 -0.000000
v -0.012397 -0.003215 -0.000000
v 0.003425 -0.011672 -0.000000
v 0.006077 -0.010867 -0.000000
v 0.008522 -0.009560 -0.000000
v 0.006077 -0.010867 -0.000000
v 0.000666 -0.011943 -0.000000
v -0.012397 -0.003215 -0.000000
v -0.011090 -0.005659 -0.000000
v -0.009332 -0.007802 -0.000000
v 0.008522 -0.009560 -0.000000
v 0.010664 -0.007802 -0.000000
v 0.014534 -0.000562 -0.000000
v 0.013729 -0.003215 -0.000000
v 0.012423 -0.005659 -0.000000
v -0.007189 -0.009560 -0.000000
v 0.008522 0.013953 -0.000000
v 0.010664 0.012194 -0.000000
v 0.012423 0.010052 -0.000000
v 0.013729 0.007607 -0.000000
v 0.014534 0.004955 -0.000000
v 0.014806 0.002196 -0.000000
v 0.003425 0.016064 -0.000000
v 0.006077 0.015259 -0.000000
v -0.011090 0.010052 -0.000000
v -0.009332 0.012194 -0.000000
v 0.000666 0.016336 -0.000000
v -0.002092 0.016064 -0.000000
v -0.013202 -0.000562 -0.000000
v -0.004745 -0.010867 -0.000000
v -0.002092 -0.011672 -0.000000
v -0.013473 0.002196 -0.000000
v -0.013202 0.004955 -0.000000
v -0.012397 0.007607 -0.000000
v -0.007189 0.013953 -0.000000
v -0.004745 0.015259 -0.000000
vn 0.0000 0.0000 1.0000
vn -0.8819 0.4714 0.0000
vn 0.7730 0.6344 0.0000
vn 0.2903 -0.9569 0.0000
vn 0.0877 0.8910 0.4455
vn 0.2599 0.8567 0.4455
vn 0.4220 0.7896 0.4455
vn 0.5680 0.6921 0.4455
vn 0.6921 0.5680 0.4455
vn 0.7896 0.4220 0.4455
vn 0.8567 0.2599 0.4455
vn 0.8910 0.0878 0.4455
vn 0.8910 -0.0878 0.4455
vn 0.8567 -0.2599 0.4455
vn 0.7896 -0.4220 0.4455
vn 0.6921 -0.5680 0.4455
vn 0.5680 -0.6921 0.4455
vn 0.4220 -0.7896 0.4455
vn 0.2599 -0.8567 0.4455
vn 0.0877 -0.8910 0.4455
vn -0.0877 -0.8910 0.4455
vn -0.2599 -0.8567 0.4455
vn -0.4220 -0.7896 0.4455
vn -0.5680 -0.6921 0.4455
vn -0.6921 -0.5680 0.4455
vn -0.7896 -0.4220 0.4455
vn -0.8567 -0.2599 0.4455
vn -0.8910 -0.0878 0.4455
vn -0.8910 0.0878 0.4455
vn -0.8567 0.2599 0.4455
vn -0.7896 0.4220 0.4455
vn -0.6921 0.5680 0.4455
vn -0.5680 0.6921 0.4455
vn -0.4220 0.7896 0.4455
vn -0.2599 0.8567 0.4455
vn -0.0877 0.8910 0.4455
vn 0.0000 0.0000 -1.0000
vn -0.9952 0.0980 0.0000
vn 0.8819 0.4714 0.0000
vn -0.9569 -0.2903 0.0000
vn 0.9569 0.2903 0.0000
vn -0.9569 0.2903 0.0000
vn -0.7730 -0.6344 0.0000
vn 0.0980 -0.9952 0.0000
vn 0.9952 -0.0980 0.0000
vn -0.6344 0.7730 0.0000
vn -0.4714 0.8819 0.0000
vn -0.4714 -0.8819 0.0000
vn 0.6344 -0.7730 0.0000
vn 0.6344 0.7730 0.0000
vn 0.9952 0.0980 0.0000
vn -0.6344 -0.7730 0.0000
vn 0.2903 0.9569 0.0000
vn -0.2903 0.9569 0.0000
vn 0.9569 -0.2903 0.0000
vn -0.2903 -0.9569 0.0000
vn 0.7730 -0.6344 0.0000
vn -0.0980 -0.9952 0.0000
vn -0.8819 -0.4714 0.0000
vn 0.4714 0.8819 0.0000
vn -0.7730 0.6344 0.0000
vn 0.8819 -0.4714 0.0000
vn -0.0980 0.9952 0.0000
vn -0.9952 -0.0980 0.0000
vn 0.0980 0.9952 0.0000
vn 0.4714 -0.8819 0.0000
usemtl None
s off
f 83//1 86//1 55//1 57//1
f 41//1 38//1 91//1 87//1
f 56//1 59//1 69//1 70//1
f 62//1 77//1 60//1 67//1
f 90//2 88//2 126//2 135//2
f 40//1 37//1 93//1 88//1
f 60//3 58//3 120//3 119//3
f 38//1 39//1 90//1 91//1
f 35//1 53//1 72//1 96//1
f 44//1 45//1 81//1 82//1
f 89//1 92//1 52//1 54//1
f 95//4 43//4 98//4 107//4
f 50//1 42//1 85//1 73//1
f 68//1 71//1 63//1 64//1
f 65//1 68//1 64//1 66//1
f 1//5 2//5 3//5
f 3//6 2//6 4//6
f 4//7 2//7 5//7
f 5//8 2//8 6//8
f 6//9 2//9 7//9
f 7//10 2//10 8//10
f 8//11 2//11 9//11
f 9//12 2//12 10//12
f 10//13 2//13 11//13
f 11//14 2//14 12//14
f 12//15 2//15 13//15
f 13//16 2//16 14//16
f 14//17 2//17 15//17
f 15//18 2//18 16//18
f 16//19 2//19 17//19
f 17//20 2//20 18//20
f 18//21 2//21 19//21
f 19//22 2//22 20//22
f 20//23 2//23 21//23
f 21//24 2//24 22//24
f 22//25 2//25 23//25
f 23//26 2//26 24//26
f 24//27 2//27 25//27
f 25//28 2//28 26//28
f 26//29 2//29 27//29
f 27//30 2//30 28//30
f 28//31 2//31 29//31
f 29//32 2//32 30//32
f 30//33 2//33 31//33
f 31//34 2//34 32//34
f 32//35 2//35 33//35
f 33//36 2//36 1//36
f 1//37 3//37 4//37 5//37 6//37 7//37 8//37 9//37 10//37 68//37 65//37 74//37 80//37 77//37 62//37 59//37 56//37 53//37 35//37 34//37 36//37 37//37 40//37 39//37 38//37 41//37 26//37 27//37 28//37 29//37 30//37 31//37 32//37 33//37
f 77//1 80//1 58//1 60//1
f 59//1 62//1 67//1 69//1
f 74//1 65//1 66//1 61//1
f 42//1 41//1 87//1 85//1
f 71//1 83//1 57//1 63//1
f 39//1 40//1 88//1 90//1
f 36//1 34//1 97//1 94//1
f 37//1 36//1 94//1 93//1
f 50//1 73//1 109//1 103//1
f 80//1 74//1 61//1 58//1
f 45//1 46//1 79//1 81//1
f 46//1 47//1 78//1 79//1
f 34//1 35//1 96//1 97//1
f 53//1 56//1 70//1 72//1
f 26//37 41//37 42//37 50//37 49//37 48//37 47//37 46//37 45//37 44//37 43//37 95//37 92//37 89//37 86//37 83//37 71//37 68//37 10//37 11//37 12//37 13//37 14//37 15//37 16//37 17//37 18//37 19//37 20//37 21//37 22//37 23//37 24//37 25//37
f 87//38 91//38 134//38 133//38
f 86//1 89//1 54//1 55//1
f 58//39 61//39 121//39 120//39
f 101//1 102//1 110//1 111//1
f 106//1 107//1 105//1 112//1
f 98//1 99//1 108//1 104//1
f 100//1 101//1 111//1 117//1
f 102//1 103//1 109//1 110//1
f 107//1 98//1 104//1 105//1
f 73//40 85//40 130//40 109//40
f 75//3 76//3 111//3 110//3
f 73//39 75//39 110//39 109//39
f 61//41 66//41 122//41 121//41
f 91//42 90//42 135//42 134//42
f 48//43 49//43 102//43 101//43
f 43//44 44//44 99//44 98//44
f 44//1 82//1 108//1 99//1
f 64//45 63//45 114//45 123//45
f 93//46 94//46 136//46 127//46
f 51//47 52//47 112//47 105//47
f 79//48 78//48 117//48 131//48
f 54//49 52//49 112//49 113//49
f 76//50 78//50 117//50 111//50
f 66//51 64//51 123//51 122//51
f 94//47 97//47 137//47 136//47
f 47//52 48//52 101//52 100//52
f 70//53 69//53 125//53 124//53
f 97//54 96//54 129//54 137//54
f 63//55 57//55 115//55 114//55
f 81//56 79//56 131//56 132//56
f 55//57 54//57 113//57 116//57
f 82//58 81//58 132//58 108//58
f 49//59 50//59 103//59 102//59
f 69//60 67//60 118//60 125//60
f 78//1 47//1 100//1 117//1
f 52//1 92//1 106//1 112//1
f 84//54 51//54 105//54 104//54
f 88//61 93//61 127//61 126//61
f 57//62 55//62 116//62 115//62
f 82//63 84//63 104//63 108//63
f 67//50 60//50 119//50 118//50
f 85//64 87//64 133//64 130//64
f 72//65 70//65 124//65 128//65
f 96//63 72//63 128//63 129//63
f 92//66 95//66 107//66 106//66
